<svg version="1" xmlns="http://www.w3.org/2000/svg" width="933.333" height="933.333" viewBox="0 0 700.000000 700.000000"><path d="M681.4 134.4c-.6.6-7.8 7.4-15.9 15.1-8.1 7.7-16 15.1-17.4 16.5-11 10.4-18.6 16.6-30.3 24.7-4.9 3.4-8.8 6.5-8.6 7 .1.4 5 4.4 10.8 8.7 5.7 4.3 12.6 10 15.3 12.5 2.7 2.5 5.2 4.7 5.7 4.9.5.2 1.9-1.6 3.1-4 4.1-8 21.5-33.8 24.9-36.8.3-.3 2.5-3 5-6 3.7-4.5 20.1-22.9 24.7-27.8 1.3-1.4 1.6-1.1-10.7-11.4-4.1-3.4-5.8-4.3-6.6-3.4zM557.5 193.7c-24.3 4.2-36.5 8.8-61.1 22.9-13.6 7.7-41.3 26.7-44.4 30.4-.3.3-5.7 4.8-12 10s-12 9.9-12.6 10.5c-.6.5-5.1 4.6-10 9-15.1 13.5-34.9 33.7-61.4 62.6-26.3 28.6-43.1 43.3-85 73.8-1.9 1.4-6.9 4.8-11 7.5-42.6 28.2-85.1 48-154.5 72.1-13.2 4.6-26.6 9.2-29.7 10.3-20.1 7.1-55.7 25.6-67 34.8l-2.7 2.2 2.7 2.4c9.9 9.1 28.3 16.6 45.1 18.2 3.5.3 9.3 1 13 1.6 3.6.5 10 1.2 14.1 1.6 4.1.3 9.1.8 11 1 25.7 2.3 67.5 2.3 95-.1 14.4-1.3 19.7-1.8 21-2 .8-.2 4.9-.6 9-1s8.2-.9 9.1-1c.9-.2 4-.6 7-1 3-.3 7.7-1 10.4-1.5 2.8-.5 6.8-1.2 9-1.5 4.2-.5 7.1-1.1 11.5-2 1.4-.3 3.6-.7 5-1 8.7-1.6 15.9-3.2 35-7.7 11.8-2.7 22.2-5.1 23-5.3 15-3.2 65.5-19.4 80.3-25.8 1.8-.8 7.9-3.4 13.7-5.7 9.9-4.1 23.8-10.5 41-18.8 24.7-12 64.8-39.2 90.5-61.3 30.5-26.2 54.3-50.9 66.1-68.4 8.4-12.4 19.3-35.3 24.4-51 3.1-9.7 5.7-25.3 5.9-35.8l.2-8.8-5.8-7.7c-9.8-12.9-29.1-31.3-43.6-41.6-29.8-21.2-33.9-23.3-42.2-21.9zm-207.1 219c3 6.1 7.5 14.4 10.1 18.3 3.5 5.5 4.3 7.5 3.5 8.5-1 1.2-52.7 27.5-54.1 27.5-.3 0-3-4.2-5.9-9.3-6.7-11.8-15.3-23.8-20.6-28.7-2.3-2.1-3.9-4.2-3.5-4.7.3-.4 7.1-5.7 15.1-11.7 8-6 17.2-13.2 20.5-16 3.3-2.8 6.9-5.8 8-6.8 1.1-.9 4.7-3.9 8-6.7l5.9-5 3.9 11.7c2.1 6.4 6.2 16.7 9.1 22.9zM265.5 458c2.6 8.6 5.6 17.3 7.1 20.2.8 1.5 1.4 3.1 1.4 3.7 0 .5-3.5 2.4-7.7 4.1-12.7 5.3-55.4 19.2-59.6 19.3-3.8.2-3.8.1-5.8-5.3-2.6-7.5-4.6-11.5-8.5-17.8-1.9-2.9-3.4-5.6-3.4-6 0-.4 6.3-3.6 14-7.1 13.8-6.3 36.4-18.4 51-27.5l7.5-4.6 1.1 7.7c.7 4.3 2 10.3 2.9 13.3zm18.1-13.3c2.5 1.6 12.2 14.9 15.7 21.6l2.6 4.7-3.2 1.4c-1.8.7-6 2.5-9.5 4s-6.7 2.4-7.1 2.2c-1.9-1.2-8.2-22.1-8.3-27.7-.1-1.5.5-4.1 1.2-5.8 1.1-2.6 1.6-3 3.9-2.4 1.4.3 3.5 1.2 4.7 2zM392 468.1c7.6 6.6 18 14 26.9 19.4 6.2 3.7 6.3 3.9 4 4.8-1.3.5-4.2 1.8-6.4 2.7-15.8 6.9-56.8 20.9-77.7 26.4l-12.8 3.4-.1-3.6c-.1-6.9-2.7-17.8-7.2-31.1-2.4-7-2.9-9.5-1.9-9.8.7-.3 13.9-6.9 29.5-14.7l28.2-14.3 5.5 5.6c3.1 3.1 8.5 8.1 12 11.2zm-218.6 23.6c.4 4.9 1.4 11.7 2.2 15.2.8 3.5 1.2 6.6 1 6.9-.8.7-16 4.2-38.1 8.8-2.5.5-11.9 2.2-16.5 2.9-1.9.3-4.2.8-5 1-.8.2-3.7.7-6.5 1-2.7.3-5.8.7-6.9.8-1.5.2-2.2-1.1-3.6-6.8-1-3.9-2.1-7.9-2.5-9-.6-1.9 1.5-2.8 23.7-10.8 13.4-4.8 29.9-10.9 36.8-13.6 6.9-2.8 13-5 13.6-5 .7-.1 1.4 3.2 1.8 8.6zm136.6-1c.9 2.9 1.6 5.3 1.5 5.3-.2 0 .3 2.1 1.1 4.7 1.7 5.7 1.8 10.4.2 13.8-1 2.1-1.6 2.5-3.7 2-1.4-.3-3.7-1.4-5.1-2.4-2.8-2-15-18.7-15-20.6 0-1.3 15.6-8.5 17.9-8.2.8.1 2.2 2.6 3.1 5.4zm-121.7 1.1c.9 1 3.2 5.1 5.1 9.2l3.5 7.5-4.2 1.2c-5.5 1.7-9.1 2-9.2.8-.1-.6-.5-3-1-5.5-2.1-11.8.9-18.7 5.8-13.2zm94.2 7.8c2.4 5.1 14.8 23.3 18.6 27.2 1.7 1.8 3 3.5 2.8 3.6-.4.3-17.7 4.4-21.9 5.1-1.4.3-4.5.9-7 1.4-4.3 1-18.3 3.6-24.3 4.5-1.5.3-5.3.9-8.5 1.5-11.8 2.1-31.1 4.5-31.6 4-.2-.2-.7-4.2-1-8.9-.6-7.2-1.1-11.4-1.9-16.4-.1-.5 3.4-2 7.8-3.3 28.1-8.5 51.7-16.5 60-20.3 5.3-2.5 5-2.5 7 1.6zM84.1 516.5c.2 6.6 0 13.7-.4 14.1-.3.3-2.2.7-4.4.9-3.7.3-11.8 1.1-19.8 2-2.2.3-7.6.7-12 1-4.5.4-9.3.8-10.9.9-3.7.4-2.5-.4 7.4-4.9 7.6-3.5 37.3-15.2 39.3-15.4.4-.1.7.6.8 1.4zm11.1 4.6c.9 2.4 1.7 5.4 1.7 6.6.1 2-.4 2.3-3.9 2.3h-4v-6.3c0-3.5.3-6.6.6-6.9 1.5-1.6 4.1.3 5.6 4.3zm106 7.4c.3 5.1-.6 11.5-1.7 11.5-2.4 0-5.7-3.1-7.9-7.5-1.4-3-2.6-5.8-2.6-6.4 0-.5 1.9-1.4 4.3-1.9 7.5-1.7 7.5-1.8 7.9 4.3zM186 538.7c2.7 5.7 4.6 10.4 4.2 10.4-.4.1-2 .3-3.7.4-1.6.1-7 .6-12 1-10 .8-55.2 1.3-65.7.7l-6.7-.4.2-3.9c.1-3.1.6-4.1 2.2-4.4 2.1-.4 12.1-2 19-3 7.4-1.1 9.2-1.5 28.7-5.5 10.7-2.2 20.6-4.3 21.9-4.8 5.8-2.2 6.8-1.4 11.9 9.5zm-118 5.2l18.6.1 1.1 2.9 1.1 2.9-9.2-.3c-11.6-.4-19.2-1.2-32.8-3.6-7.5-1.2-8.4-2.5-1.6-2.2 2.3.1 12.6.2 22.8.2zm29 1.6c0 .8-.6 1.5-1.4 1.5-.8 0-1.6-.7-2-1.5-.4-1 .1-1.5 1.4-1.5 1.1 0 2 .7 2 1.5z"/></svg>