<svg xmlns="http://www.w3.org/2000/svg" width="32" height="32" viewBox="0 0 32 32">
  <defs>
    <style>
      .cls-1 {
        fill: #fff;
        fill-rule: evenodd;
      }
    </style>
  </defs>
  <path id="octocat_stars_merged" class="cls-1" d="M5162.14,955.307l-2.03,1.975,0.48,2.791a0.342,0.342,0,0,1,.01.111,0.323,0.323,0,0,1-.06.2,0.191,0.191,0,0,1-.17.081,0.444,0.444,0,0,1-.22-0.067l-2.51-1.317-2.5,1.317a0.479,0.479,0,0,1-.23.067,0.2,0.2,0,0,1-.17-0.081,0.323,0.323,0,0,1-.06-0.2,0.547,0.547,0,0,1,.01-0.111l0.48-2.791-2.03-1.975a0.444,0.444,0,0,1-.14-0.268,0.287,0.287,0,0,1,.31-0.257l2.8-.407,1.26-2.539a0.315,0.315,0,0,1,.27-0.229,0.326,0.326,0,0,1,.28.229l1.25,2.539,2.8,0.407a0.3,0.3,0,0,1,.32.257A0.4,0.4,0,0,1,5162.14,955.307Zm-21.51-1.526a0.136,0.136,0,0,1,.17-0.027,0.134,0.134,0,0,1,.1.161,0.109,0.109,0,0,1-.18.027C5140.63,953.9,5140.6,953.844,5140.63,953.781Zm0.47,0.549c-0.08-.1-0.09-0.169-0.03-0.214s0.13-.04.22,0.04c0.08,0.1.08,0.17,0.02,0.215C5141.26,954.433,5141.19,954.42,5141.1,954.33Zm0.39,0.549c-0.08-.115-0.08-0.2,0-0.241,0.08-.062.15-0.035,0.22,0.081a0.163,0.163,0,0,1,0,.254C5141.64,955.027,5141.57,955,5141.49,954.879Zm0.52,0.617c-0.12-.1-0.14-0.183-0.05-0.255,0.07-.08.16-0.067,0.26,0.04s0.13,0.183.06,0.255S5142.12,955.6,5142.01,955.5Zm0.6,0.254a0.188,0.188,0,0,1,.26-0.094c0.14,0.045.2,0.116,0.17,0.215s-0.12.133-.25,0.08C5142.63,955.915,5142.58,955.848,5142.61,955.75Zm0.83,0.188c0-.1.07-0.148,0.22-0.148,0.15-.018.22,0.032,0.22,0.148q0,0.147-.21.147C5143.52,956.1,5143.44,956.054,5143.44,955.938Zm0.79-.054c-0.02-.107.05-0.174,0.19-0.2a0.179,0.179,0,0,1,.24.121c0.02,0.089-.04.151-0.19,0.187S5144.25,955.991,5144.23,955.884Zm12.83-6.5-2.4,3.537s-3.22.7-3.6,1.891c-0.31.939,1.57,2.487,2.22,2.988a10.288,10.288,0,0,1-2.74,1.394,0.612,0.612,0,0,1-.54-0.094,0.542,0.542,0,0,1-.17-0.4c0-.026,0-0.368.01-1.024v-1.8a2.4,2.4,0,0,0-.69-1.9,9.269,9.269,0,0,0,1.37-.241,5.358,5.358,0,0,0,1.26-.523,3.752,3.752,0,0,0,1.08-.89,4.1,4.1,0,0,0,.71-1.407,6.52,6.52,0,0,0,.28-2.015,3.948,3.948,0,0,0-1.06-2.759,3.577,3.577,0,0,0-.11-2.732,1.737,1.737,0,0,0-1.08.147,6.728,6.728,0,0,0-1.23.589l-0.51.322a9.7,9.7,0,0,0-5.15,0c-0.14-.1-0.33-0.219-0.56-0.362a8.092,8.092,0,0,0-1.12-.515,1.845,1.845,0,0,0-1.14-.181,3.577,3.577,0,0,0-.11,2.732,3.993,3.993,0,0,0-1.06,2.759,6.467,6.467,0,0,0,.28,2.009,4.365,4.365,0,0,0,.7,1.406,3.709,3.709,0,0,0,1.08.9,5.358,5.358,0,0,0,1.26.523,9.039,9.039,0,0,0,1.37.241,2.257,2.257,0,0,0-.66,1.379,2.378,2.378,0,0,1-.6.2,3.731,3.731,0,0,1-.76.067,1.572,1.572,0,0,1-.88-0.288,2.307,2.307,0,0,1-.74-0.837,2.193,2.193,0,0,0-.65-0.7,2.088,2.088,0,0,0-.66-0.322l-0.27-.04a0.869,0.869,0,0,0-.39.06,0.121,0.121,0,0,0-.07.154,0.985,0.985,0,0,0,.12.188,1.009,1.009,0,0,0,.18.161l0.09,0.066a1.584,1.584,0,0,1,.58.509,3.129,3.129,0,0,1,.43.683l0.13,0.308a1.641,1.641,0,0,0,.59.824,2.014,2.014,0,0,0,.9.4,5.749,5.749,0,0,0,.93.094,3.932,3.932,0,0,0,.74-0.047l0.31-.054v1.186c0.01,0.45.01,0.694,0.01,0.729a0.542,0.542,0,0,1-.17.4,0.612,0.612,0,0,1-.54.094,10.09,10.09,0,0,1-5.07-3.717,10.325,10.325,0,0,1-.58-11.209,10.282,10.282,0,0,1,3.74-3.744,10.362,10.362,0,0,1,10.33,0,10.282,10.282,0,0,1,3.74,3.744,9.945,9.945,0,0,1,1.36,4.771,0.483,0.483,0,0,0-.05-0.016A0.515,0.515,0,0,0,5157.06,949.382Z" transform="translate(-5133.64 -933.813)"/>
</svg>
