<svg xmlns="http://www.w3.org/2000/svg" width="32" height="32" viewBox="0 0 32 32">
  <defs>
    <style>
      .cls-1 {
        fill: #fff;
        fill-rule: evenodd;
      }
    </style>
  </defs>
  <path id="twitter" class="cls-1" d="M5248.21,943.563a4.23,4.23,0,0,0,1.9-2.384,8.545,8.545,0,0,1-2.75,1.044,4.322,4.322,0,0,0-7.48,2.96,4.886,4.886,0,0,0,.1.991,12.021,12.021,0,0,1-4.97-1.332,12.264,12.264,0,0,1-3.95-3.195,4.269,4.269,0,0,0-.59,2.183,4.372,4.372,0,0,0,1.93,3.6,4.274,4.274,0,0,1-1.95-.549v0.054a4.156,4.156,0,0,0,.98,2.752,4.28,4.28,0,0,0,2.49,1.493,4.549,4.549,0,0,1-1.14.147,5.424,5.424,0,0,1-.82-0.067,4.261,4.261,0,0,0,1.53,2.137,4.2,4.2,0,0,0,2.51.863,8.459,8.459,0,0,1-5.37,1.849,9.119,9.119,0,0,1-1.04-.054,12,12,0,0,0,6.64,1.942,12.65,12.65,0,0,0,4.33-.73,10.881,10.881,0,0,0,3.45-1.955,12.914,12.914,0,0,0,2.47-2.819,12.429,12.429,0,0,0,2.06-6.8c0-.25,0-0.437-0.01-0.563a9.244,9.244,0,0,0,2.17-2.236,8.641,8.641,0,0,1-2.49.67h0Z" transform="translate(-5224.14 -933.422)"/>
</svg>
