<svg xmlns="http://www.w3.org/2000/svg" width="48" height="48" viewBox="0 0 48 48">
  <defs>
    <style>
      .cls-1 {
        fill: #696969;
        fill-rule: evenodd;
      }
    </style>
  </defs>
  <path id="_Main_object" data-name="!!!Main_object" class="cls-1" d="M1332.5,2370a9.5,9.5,0,1,1-9.5,9.5A9.5,9.5,0,0,1,1332.5,2370Zm15,33a4.51,4.51,0,0,1-3.73-7.03L1339,2389l1-1,5.21,6.64a4.452,4.452,0,0,1,2.29-.64A4.5,4.5,0,0,1,1347.5,2403Zm0-7a2.5,2.5,0,1,0,2.5,2.5A2.5,2.5,0,0,0,1347.5,2396Zm-22.52-7.95,0.02-.05,1.37,0.68Zm0.39,5.09-1.95-.89,0.94-2.52,2,0.9Zm-1.48,3.78-1.88-.85,0.79-2.14,1.92,0.87Zm0.11,3.58a3.5,3.5,0,1,1-3.5-3.5A3.5,3.5,0,0,1,1324,2400.5Zm-5,0a1.5,1.5,0,1,0,1.5-1.5A1.5,1.5,0,0,0,1319,2400.5Zm2.99-22.5h-5.34a3.5,3.5,0,1,1,.3-2h5.04v2Zm-8.49-3a1.5,1.5,0,1,0,1.5,1.5A1.5,1.5,0,0,0,1313.5,2375Zm14.5-7-2,1-1.21-2.26a3.452,3.452,0,0,1-1.29.26,3.528,3.528,0,1,1,2.92-1.59Zm-4.5-6a1.5,1.5,0,1,0,1.5,1.5A1.5,1.5,0,0,0,1323.5,2362Zm28,8a3.5,3.5,0,0,1-3.38-2.61l-0.14-.22,0.08-.05a3.179,3.179,0,0,1-.06-0.62A3.5,3.5,0,1,1,1351.5,2370Zm0-5a1.5,1.5,0,1,0,1.5,1.5A1.5,1.5,0,0,0,1351.5,2365Zm-7.18,4.7,2.2-1.52,0.98,1.49-2.28,1.38ZM1341,2372l1.86-1.29,0.84,1.26L1342,2373Z" transform="translate(-1308.5 -2358)"/>
</svg>
