<svg xmlns="http://www.w3.org/2000/svg" width="48" height="48" viewBox="0 0 48 48">
  <defs>
    <style>
      .cls-1 {
        fill: #696969;
        fill-rule: evenodd;
      }
    </style>
  </defs>
  <path id="_DataEncrypt.shield__lock" data-name="!!!DataEncrypt.shield_ lock" class="cls-1" d="M1352.98,2678.12c-0.06,1.59-3.61,2.88-7.98,2.88-0.34,0-.67-0.01-1-0.03v-6.01c0.33,0.01.66,0.02,1,.02,4.42,0,8-1.3,8-2.92v6.06h-0.02Zm-7.98-4.7c-0.34,0-.67-0.01-1-0.03V2672c-2.25-1.31-4.44-2.44-7-3.62v-3.9c0,1.62,3.58,2.93,8,2.93s8-1.31,8-2.93v6.06h-0.02C1352.92,2672.13,1349.37,2673.42,1345,2673.42Zm0-7.42c-4.42,0-8-1.48-8-3.09s3.58-2.91,8-2.91,8,1.3,8,2.91S1349.42,2666,1345,2666Zm-3,16c0,8.32-5.76,16.11-13.5,18-7.74-1.89-13.5-9.68-13.5-18v-9l13.5-6,13.5,6v9Zm-8-.57a1.407,1.407,0,0,0-1.38-1.43h-0.68v-1.43a3.442,3.442,0,1,0-6.88,0V2680h-0.69a1.405,1.405,0,0,0-1.37,1.43v7.14a1.405,1.405,0,0,0,1.37,1.43h8.25a1.407,1.407,0,0,0,1.38-1.43v-7.14Zm-7.63-2.86a2.131,2.131,0,1,1,4.26,0V2680h-4.26v-1.43Z" transform="translate(-1310 -2656)"/>
</svg>
