<svg xmlns="http://www.w3.org/2000/svg" width="45.91" height="28.437" viewBox="0 0 45.91 28.437">
  <defs>
    <style>
      .cls-1 {
        fill: #fff;
        fill-rule: evenodd;
      }
    </style>
  </defs>
  <path id="_LogoMono" data-name="!!!LogoMono" class="cls-1" d="M4056.4,937.168a15.885,15.885,0,0,0-1.75,2.66,10.386,10.386,0,0,0-1.44-1.26c-0.29-.2-0.53-0.368-0.77-0.525a15.209,15.209,0,0,0,2.38-1.81c0.93-.859,2.53-2.407,2.53-2.407l1.15,0.959S4057.42,935.9,4056.4,937.168Zm-1.27,5.23a0.017,0.017,0,0,0-.01.018c0.01,0.072.03,0.145,0.04,0.22a8.472,8.472,0,0,1-.84,3.884,11.544,11.544,0,0,1-2.06,3.393,24.04,24.04,0,0,1-3.59,3.37,39.941,39.941,0,0,1-4.85,3.21l-0.35.191-0.36.191-0.96.5a0.532,0.532,0,0,0,.19.127,42.742,42.742,0,0,1-9.46,3.3,48.107,48.107,0,0,1-11.75,1.45,46.874,46.874,0,0,1-5.32-.457,5.314,5.314,0,0,1-2.53-1.029l-0.69-.03c0.17-.044.34-0.1,0.5-0.144l-0.09-.105,0.2-.193a20.028,20.028,0,0,1,5.09-2.49l0.55-.191a57.121,57.121,0,0,0,8-3.248,40.124,40.124,0,0,0,7.81-5.648,2.756,2.756,0,0,1,.06-0.332,14.374,14.374,0,0,1,1.15-1.191c1.05-1.065,2.13-2.154,3.24-3.188s2.25-2.041,3.38-2.915a22.322,22.322,0,0,1,3.47-2.257,9.361,9.361,0,0,1,3.33-1.069,3.2,3.2,0,0,1,.47,0c0.69,0.43,1.73,1.1,2.79,1.9A15.441,15.441,0,0,1,4055.13,942.4Zm-22,15.677a7.01,7.01,0,0,0-.36-1.226c-0.43.193-.86,0.374-1.28,0.551a6.94,6.94,0,0,0,.75,1.113,0.875,0.875,0,0,0,.77.472h0A0.917,0.917,0,0,0,4033.13,958.075Zm-2.41-3.984-0.01,0a0.946,0.946,0,0,0-.12.911,7.153,7.153,0,0,0,.49,1.533c0.43-.182.87-0.372,1.31-0.57a7.2,7.2,0,0,0-.9-1.4A0.891,0.891,0,0,0,4030.72,954.091Zm-4.37,6.9a54.939,54.939,0,0,0,6.22-1.113c-0.09-.088-0.18-0.175-0.28-0.283a10.557,10.557,0,0,1-1.29-1.981c-0.69.283-1.37,0.538-2,.752-0.93.316-1.88,0.6-2.82,0.866a7.412,7.412,0,0,1,.19,1.416C4026.37,960.769,4026.36,960.88,4026.35,960.987Zm-0.71-.482a0.59,0.59,0,0,0,.15-0.553,3.515,3.515,0,0,0-.06-0.605c-0.27.074-.54,0.143-0.8,0.212a3.523,3.523,0,0,0,.28.57A0.564,0.564,0,0,0,4025.64,960.505Zm-6.77.437a0.251,0.251,0,0,0,.11-0.221c-0.09.011-.19,0.027-0.28,0.037A0.276,0.276,0,0,0,4018.87,960.942Zm-0.75-2.1a26.015,26.015,0,0,0-3.5,1.459c1.03-.068,1.96-0.268,2.49-0.305,0.33-.021.68-0.055,1.02-0.091A5.443,5.443,0,0,1,4018.12,958.842Zm0.19,1.951c-0.31.03-.61,0.062-0.9,0.081s-0.71.017-1.2,0c0.57,0.1,1.31.189,2.21,0.264A2.729,2.729,0,0,1,4018.31,960.793Zm0.48-1.612a0.19,0.19,0,1,0-.34.041,2.813,2.813,0,0,0,0,.651c0.17-.019.35-0.045,0.52-0.067A2.252,2.252,0,0,0,4018.79,959.181Zm5.16-2.475c-1.46.592-3,1.139-4.72,1.745l-0.31.108a0.562,0.562,0,0,0,.05.1,4.522,4.522,0,0,1,.28,1.108,46.69,46.69,0,0,0,4.95-.98,7.955,7.955,0,0,1-.27-1.75C4023.93,956.918,4023.94,956.81,4023.95,956.706Zm-4.64,3.971a2.832,2.832,0,0,1-.02.426,0.335,0.335,0,0,1-.02.1c0.55,0.034,1.14.063,1.82,0.079a35.867,35.867,0,0,0,4.06-.183c-0.02-.026-0.04-0.045-0.06-0.072a7.574,7.574,0,0,1-.62-1.347A46.38,46.38,0,0,1,4019.31,960.677Zm5.36-3.5a0.584,0.584,0,0,0-.16.552,4.558,4.558,0,0,0,.14.937c0.28-.072.56-0.145,0.84-0.223a4.481,4.481,0,0,0-.4-0.891A0.57,0.57,0,0,0,4024.67,957.179Zm2.64-2.013c-0.79.416-1.58,0.78-2.38,1.126a2.8,2.8,0,0,1,.27.364,7.961,7.961,0,0,1,.74,1.67c0.87-.249,1.75-0.517,2.61-0.811,0.64-.215,1.33-0.478,2.04-0.77a11.188,11.188,0,0,1-.79-2.463,3.921,3.921,0,0,1-.05-0.563C4028.91,954.267,4028.1,954.749,4027.31,955.166Zm7.43-5.3a49.215,49.215,0,0,1-3.87,3.082,3.216,3.216,0,0,1,.56.525,11.048,11.048,0,0,1,1.44,2.266c1.3-.6,2.59-1.251,3.7-1.857A11.667,11.667,0,0,1,4034.74,949.871Zm2.42,4.8c-1.18.648-2.53,1.325-3.89,1.95a10.931,10.931,0,0,1,.66,2.165,4.919,4.919,0,0,1,.05.726,44.723,44.723,0,0,0,6.52-2.206A11.591,11.591,0,0,1,4037.16,954.674Z" transform="translate(-4012.59 -933.813)"/>
</svg>
