<svg xmlns="http://www.w3.org/2000/svg" width="162.38" height="28.5" viewBox="0 0 162.38 28.5">
  <defs>
    <style>
      .cls-1 {
        fill: #fff;
        fill-rule: evenodd;
      }
    </style>
  </defs>
  <path id="_LogoMonoFull" data-name="!!!LogoMonoFull" class="cls-1" d="M4056.4,937.168a15.885,15.885,0,0,0-1.75,2.66,10.386,10.386,0,0,0-1.44-1.26c-0.29-.2-0.53-0.368-0.77-0.525a15.209,15.209,0,0,0,2.38-1.81c0.93-.859,2.53-2.407,2.53-2.407l1.15,0.959S4057.42,935.9,4056.4,937.168Zm-1.27,5.23a0.017,0.017,0,0,0-.01.018c0.01,0.072.03,0.145,0.04,0.22a8.472,8.472,0,0,1-.84,3.884,11.544,11.544,0,0,1-2.06,3.393,24.04,24.04,0,0,1-3.59,3.37,39.941,39.941,0,0,1-4.85,3.21l-0.35.191-0.36.191-0.96.5a0.532,0.532,0,0,0,.19.127,42.742,42.742,0,0,1-9.46,3.3,48.107,48.107,0,0,1-11.75,1.45,46.874,46.874,0,0,1-5.32-.457,5.314,5.314,0,0,1-2.53-1.029l-0.69-.03c0.17-.044.34-0.1,0.5-0.144l-0.09-.105,0.2-.193a20.028,20.028,0,0,1,5.09-2.49l0.55-.191a57.121,57.121,0,0,0,8-3.248,40.124,40.124,0,0,0,7.81-5.648,2.756,2.756,0,0,1,.06-0.332,14.374,14.374,0,0,1,1.15-1.191c1.05-1.065,2.13-2.154,3.24-3.188s2.25-2.041,3.38-2.915a22.322,22.322,0,0,1,3.47-2.257,9.361,9.361,0,0,1,3.33-1.069,3.2,3.2,0,0,1,.47,0c0.69,0.43,1.73,1.1,2.79,1.9A15.441,15.441,0,0,1,4055.13,942.4Zm-22,15.677a7.01,7.01,0,0,0-.36-1.226c-0.43.193-.86,0.374-1.28,0.551a6.94,6.94,0,0,0,.75,1.113,0.875,0.875,0,0,0,.77.472h0A0.917,0.917,0,0,0,4033.13,958.075Zm-2.41-3.984-0.01,0a0.946,0.946,0,0,0-.12.911,7.153,7.153,0,0,0,.49,1.533c0.43-.182.87-0.372,1.31-0.57a7.2,7.2,0,0,0-.9-1.4A0.891,0.891,0,0,0,4030.72,954.091Zm-4.37,6.9a54.939,54.939,0,0,0,6.22-1.113c-0.09-.088-0.18-0.175-0.28-0.283a10.557,10.557,0,0,1-1.29-1.981c-0.69.283-1.37,0.538-2,.752-0.93.316-1.88,0.6-2.82,0.866a7.412,7.412,0,0,1,.19,1.416C4026.37,960.769,4026.36,960.88,4026.35,960.987Zm-0.71-.482a0.59,0.59,0,0,0,.15-0.553,3.515,3.515,0,0,0-.06-0.605c-0.27.074-.54,0.143-0.8,0.212a3.523,3.523,0,0,0,.28.57A0.564,0.564,0,0,0,4025.64,960.505Zm-6.77.437a0.251,0.251,0,0,0,.11-0.221c-0.09.011-.19,0.027-0.28,0.037A0.276,0.276,0,0,0,4018.87,960.942Zm-0.75-2.1a26.015,26.015,0,0,0-3.5,1.459c1.03-.068,1.96-0.268,2.49-0.305,0.33-.021.68-0.055,1.02-0.091A5.443,5.443,0,0,1,4018.12,958.842Zm0.19,1.951c-0.31.03-.61,0.062-0.9,0.081s-0.71.017-1.2,0c0.57,0.1,1.31.189,2.21,0.264A2.729,2.729,0,0,1,4018.31,960.793Zm0.48-1.612a0.19,0.19,0,1,0-.34.041,2.813,2.813,0,0,0,0,.651c0.17-.019.35-0.045,0.52-0.067A2.252,2.252,0,0,0,4018.79,959.181Zm5.16-2.475c-1.46.592-3,1.139-4.72,1.745l-0.31.108a0.562,0.562,0,0,0,.05.1,4.522,4.522,0,0,1,.28,1.108,46.69,46.69,0,0,0,4.95-.98,7.955,7.955,0,0,1-.27-1.75C4023.93,956.918,4023.94,956.81,4023.95,956.706Zm-4.64,3.971a2.832,2.832,0,0,1-.02.426,0.335,0.335,0,0,1-.02.1c0.55,0.034,1.14.063,1.82,0.079a35.867,35.867,0,0,0,4.06-.183c-0.02-.026-0.04-0.045-0.06-0.072a7.574,7.574,0,0,1-.62-1.347A46.38,46.38,0,0,1,4019.31,960.677Zm5.36-3.5a0.584,0.584,0,0,0-.16.552,4.558,4.558,0,0,0,.14.937c0.28-.072.56-0.145,0.84-0.223a4.481,4.481,0,0,0-.4-0.891A0.57,0.57,0,0,0,4024.67,957.179Zm2.64-2.013c-0.79.416-1.58,0.78-2.38,1.126a2.8,2.8,0,0,1,.27.364,7.961,7.961,0,0,1,.74,1.67c0.87-.249,1.75-0.517,2.61-0.811,0.64-.215,1.33-0.478,2.04-0.77a11.188,11.188,0,0,1-.79-2.463,3.921,3.921,0,0,1-.05-0.563C4028.91,954.267,4028.1,954.749,4027.31,955.166Zm7.43-5.3a49.215,49.215,0,0,1-3.87,3.082,3.216,3.216,0,0,1,.56.525,11.048,11.048,0,0,1,1.44,2.266c1.3-.6,2.59-1.251,3.7-1.857A11.667,11.667,0,0,1,4034.74,949.871Zm2.42,4.8c-1.18.648-2.53,1.325-3.89,1.95a10.931,10.931,0,0,1,.66,2.165,4.919,4.919,0,0,1,.05.726,44.723,44.723,0,0,0,6.52-2.206A11.591,11.591,0,0,1,4037.16,954.674Zm39.46-14.3h-2.76l-0.39,1.281h-2.48l2.96-7.764h2.65l2.95,7.764h-2.54Zm-0.51-1.679-0.87-2.791-0.86,2.791h1.73Zm4.21-4.8h4.03a2.8,2.8,0,0,1,1.98.62,2.3,2.3,0,0,1,.66,1.764,2.372,2.372,0,0,1-.72,1.837,3.114,3.114,0,0,1-2.18.662h-1.33v2.881h-2.44v-7.764Zm2.44,3.31h0.59a1.552,1.552,0,0,0,.99-0.241,0.767,0.767,0,0,0,.28-0.616,0.869,0.869,0,0,0-.24-0.62,1.31,1.31,0,0,0-.93-0.255h-0.69V937.2Zm9.4,3.173h-2.76l-0.38,1.281h-2.48l2.95-7.764h2.65l2.96,7.764h-2.55Zm-0.5-1.679-0.87-2.791-0.86,2.791h1.73Zm9.25-.218,2.13,0.636a3.782,3.782,0,0,1-.68,1.478,2.981,2.981,0,0,1-1.14.894,4.343,4.343,0,0,1-1.74.3,5.117,5.117,0,0,1-2.1-.369,3.282,3.282,0,0,1-1.4-1.293,4.289,4.289,0,0,1-.59-2.372,3.614,3.614,0,0,1,3.97-4,4.052,4.052,0,0,1,2.34.593,3.433,3.433,0,0,1,1.26,1.822l-2.14.471a2.025,2.025,0,0,0-.24-0.519,1.319,1.319,0,0,0-.5-0.423,1.538,1.538,0,0,0-1.92.507,2.685,2.685,0,0,0-.34,1.529,2.9,2.9,0,0,0,.4,1.769,1.584,1.584,0,0,0,2.17.092A2.385,2.385,0,0,0,4100.91,938.478Zm3.32-4.586h2.43v2.717h2.65v-2.717h2.44v7.764h-2.44v-3.14h-2.65v3.14h-2.43v-7.764Zm9.13,0h6.52v1.658h-4.08v1.234h3.78v1.583h-3.78v1.53h4.19v1.759h-6.63v-7.764Zm-33.38,20.765,3.87,1.185a7.261,7.261,0,0,1-1.23,2.757,5.34,5.34,0,0,1-2.08,1.67,7.689,7.689,0,0,1-3.16.563,9.046,9.046,0,0,1-3.8-.687,6.066,6.066,0,0,1-2.55-2.413,8.313,8.313,0,0,1-1.07-4.423,7.57,7.57,0,0,1,1.89-5.524,7.094,7.094,0,0,1,5.33-1.93,7.183,7.183,0,0,1,4.24,1.106,6.5,6.5,0,0,1,2.29,3.4l-3.9.88a3.231,3.231,0,0,0-.42-0.968,2.567,2.567,0,0,0-.91-0.791,2.61,2.61,0,0,0-1.2-.276,2.565,2.565,0,0,0-2.29,1.223,5.19,5.19,0,0,0-.61,2.852,5.485,5.485,0,0,0,.72,3.3,2.465,2.465,0,0,0,2.03.893,2.434,2.434,0,0,0,1.91-.721A4.465,4.465,0,0,0,4079.98,954.657Zm14.78,3.537h-5l-0.7,2.391h-4.5l5.36-14.483h4.81l5.37,14.483h-4.62Zm-0.91-3.132-1.58-5.206-1.56,5.206h3.14Zm4.51-8.96h4.9l2.88,4.886,2.88-4.886h4.87l-5.55,8.417v6.066h-4.42v-6.066Zm16.95,0h11.82v3.092h-7.4v2.3h6.86v2.954h-6.86v2.855h7.61v3.28h-12.03V946.1Zm14.44,0h4.12l5.37,8.012V946.1h4.16v14.483h-4.16l-5.35-7.953v7.953h-4.14V946.1Zm16.61,0h4.12l5.37,8.012V946.1h4.16v14.483h-4.16l-5.34-7.953v7.953h-4.15V946.1Zm16.57,0h11.82v3.092h-7.4v2.3h6.87v2.954h-6.87v2.855h7.62v3.28h-12.04V946.1Z" transform="translate(-4012.59 -933.75)"/>
</svg>
