<svg xmlns="http://www.w3.org/2000/svg" width="48" height="48" viewBox="0 0 48 48"><defs><style>.cls-1{fill:#696969;fill-rule:evenodd}</style></defs><path id="_TrTr.begin_end" data-name="!!!TrTr.begin_end" class="cls-1" d="M1355.98 2277.12c-.07 1.59-3.61 2.88-7.98 2.88a17.846 17.846 0 0 1-5-.65v-6.01a18.249 18.249 0 0 0 5 .64c4.41 0 8-1.3 8-2.92v6.06h-.02zm-7.98-4.7a17.846 17.846 0 0 1-5-.65V2267a1.962 1.962 0 0 0-.61-1.43 17.183 17.183 0 0 0 5.61.84c4.41 0 8-1.31 8-2.93v6.06h-.02c-.07 1.59-3.61 2.88-7.98 2.88zm0-7.42c-4.42 0-8-1.48-8-3.09s3.58-2.91 8-2.91 8 1.3 8 2.91-3.59 3.09-8 3.09zm-20-1v1h-2l-.01-3h12v2H1328zm-14 3h25a2 2 0 0 1 2 2v36a2.006 2.006 0 0 1-2 2h-25a2 2 0 0 1-2-2v-36a1.993 1.993 0 0 1 2-2zm11 14h3v-1h-3v1zm-7.01 21h5.01v-2h-5.01v2zm5.01-21v-1h-2v1h2zm0-9h-5.01v2h5.01v-2zm3.99 5H1321v1h5.99v-1zm4.01 0h-2v1h2v-1zm-10 8h2v1h-2v-1zm8 0h3v1h-3v-1zm-4 0h1.99v1H1325v-1zm-4 3h2v1h-2v-1zm9 0h4v1h-4v-1zm-5 0h3v1h-3v-1zm-2 3h7v1h-7v-1zm-2 5h2v1h-2v-1zm4 0h4v1h-4v-1z" transform="translate(-1310 -2259)"/></svg>