<svg xmlns="http://www.w3.org/2000/svg" width="48" height="48" viewBox="0 0 48 48"><defs><style>.cls-1{fill:#696969;fill-rule:evenodd}</style></defs><path id="_Main_object" data-name="!!!Main_object" class="cls-1" d="M1332.5 2370a9.5 9.5 0 1 1-9.5 9.5 9.5 9.5 0 0 1 9.5-9.5zm15 33a4.51 4.51 0 0 1-3.73-7.03L1339 2389l1-1 5.21 6.64a4.452 4.452 0 0 1 2.29-.64 4.5 4.5 0 0 1 0 9zm0-7a2.5 2.5 0 1 0 2.5 2.5 2.5 2.5 0 0 0-2.5-2.5zm-22.52-7.95l.02-.05 1.37.68zm.39 5.09l-1.95-.89.94-2.52 2 .9zm-1.48 3.78l-1.88-.85.79-2.14 1.92.87zm.11 3.58a3.5 3.5 0 1 1-3.5-3.5 3.5 3.5 0 0 1 3.5 3.5zm-5 0a1.5 1.5 0 1 0 1.5-1.5 1.5 1.5 0 0 0-1.5 1.5zm2.99-22.5h-5.34a3.5 3.5 0 1 1 .3-2h5.04v2zm-8.49-3a1.5 1.5 0 1 0 1.5 1.5 1.5 1.5 0 0 0-1.5-1.5zm14.5-7l-2 1-1.21-2.26a3.452 3.452 0 0 1-1.29.26 3.528 3.528 0 1 1 2.92-1.59zm-4.5-6a1.5 1.5 0 1 0 1.5 1.5 1.5 1.5 0 0 0-1.5-1.5zm28 8a3.5 3.5 0 0 1-3.38-2.61l-.14-.22.08-.05a3.179 3.179 0 0 1-.06-.62 3.5 3.5 0 1 1 3.5 3.5zm0-5a1.5 1.5 0 1 0 1.5 1.5 1.5 1.5 0 0 0-1.5-1.5zm-7.18 4.7l2.2-1.52.98 1.49-2.28 1.38zm-3.32 2.3l1.86-1.29.84 1.26-1.7 1.03z" transform="translate(-1308.5 -2358)"/></svg>