<svg xmlns="http://www.w3.org/2000/svg" width="48" height="48" viewBox="0 0 48 48"><defs><style>.cls-1{fill:#696969;fill-rule:evenodd}</style></defs><path id="_Extensions" data-name="!!!Extensions" class="cls-1" d="M1356.66 2479.33c0-.74-.59-.33-1.33-.33H1354c-2.75 0-2.61 6 0 6h1.33c.74 0 1.33.4 1.33-.34h1.34V2495a2.006 2.006 0 0 1-2 2h-18v-2h16.26a1.741 1.741 0 0 0 1.74-1.74v-6.34a5.952 5.952 0 0 0-1.01-.12H1353c-3.91 0-4.12-9.6 0-9.6h1.99a5.053 5.053 0 0 0 1.01-.13v-7.21c0-.95-.78-.86-1.74-.86H1338v-2h18c1.1 0 2-.11 2 1v11.33h-1.34zM1312 2497a2 2 0 0 1-2-2v-26a1.993 1.993 0 0 1 2-2h6.3a1.861 1.861 0 0 1-.3-1v-2c0-3.91 10-4.12 10 0v2a1.871 1.871 0 0 1-.31 1h8.31v12.5c0-1.11-.9-1.53-2-1.53h-2.01c-4.11 0-3.9 8.09 0 8.09h2.01c1.1 0 2-.46 2-1.56v12.5h-24z" transform="translate(-1310 -2455)"/></svg>