<svg xmlns="http://www.w3.org/2000/svg" width="48" height="48" viewBox="0 0 48 48"><defs><style>.cls-1{fill:#696969;fill-rule:evenodd}</style></defs><path id="_DBFirst_flow.file_48x48_" data-name="!!!DBFirst flow.file [48x48]" class="cls-1" d="M1353.99 2192a2.044 2.044 0 0 1-1.99 2h-12.01a2.053 2.053 0 0 1-1.99-2.1l.01-16.8a2.046 2.046 0 0 1 1.99-2.1h8l6 6.3v4.7h4v8h-4.01zm-11.35-6.57h-2.31v.55h1.6v2.58a1.713 1.713 0 0 1-.2.96.838.838 0 0 1-.71.27 2.61 2.61 0 0 1-.78-.16l-.24-.09v.63a4.228 4.228 0 0 0 1.07.18 1.445 1.445 0 0 0 1.17-.48 1.472 1.472 0 0 0 .32-.62 5.689 5.689 0 0 0 .08-1.09v-2.73zm2.95 0l-1.82 4.8h.61l.45-1.2h2.11l.43 1.2h.75l-1.82-4.8h-.71zm1.41-10.86v5.78h5.5zm4.95 10.86l-1.51 3.82-1.47-3.82h-.75l1.79 4.8h.71l1.83-4.8h-.6zm3.23 0h-.71l-1.82 4.8h.61l.45-1.2h2.1l.44 1.2h.75zm-.42.75l.84 2.3h-1.68zm-8.88 0l.84 2.3h-1.68zm-15.88.88l3.08-3.06-3.08-3.06.95-.94 4.04 4-4.04 4zm-11 6.94c-4.38 0-7.92-1.29-7.99-2.88h-.01v-6.06c0 1.62 3.58 2.92 8 2.92s8-1.3 8-2.92v6.06h-.02c-.07 1.59-3.61 2.88-7.98 2.88zm0-7.58c-4.38 0-7.92-1.29-7.99-2.88h-.01v-6.06c0 1.62 3.58 2.93 8 2.93s8-1.31 8-2.93v6.06h-.02c-.07 1.59-3.61 2.88-7.98 2.88zm0-7.42c-4.42 0-8-1.48-8-3.09s3.58-2.91 8-2.91 8 1.3 8 2.91-3.59 3.09-8 3.09z" transform="translate(-1310.5 -2159.5)"/></svg>