<svg xmlns="http://www.w3.org/2000/svg" width="32" height="32" viewBox="0 0 32 32"><defs><style>.cls-1{fill:#fff;fill-rule:evenodd}</style></defs><path id="octocat_stars_merged" class="cls-1" d="M5162.14 955.307l-2.03 1.975.48 2.791a.342.342 0 0 1 .01.111.323.323 0 0 1-.06.2.191.191 0 0 1-.17.081.444.444 0 0 1-.22-.067l-2.51-1.317-2.5 1.317a.479.479 0 0 1-.23.067.2.2 0 0 1-.17-.081.323.323 0 0 1-.06-.2.547.547 0 0 1 .01-.111l.48-2.791-2.03-1.975a.444.444 0 0 1-.14-.268.287.287 0 0 1 .31-.257l2.8-.407 1.26-2.539a.315.315 0 0 1 .27-.229.326.326 0 0 1 .28.229l1.25 2.539 2.8.407a.3.3 0 0 1 .32.257.4.4 0 0 1-.15.268zm-21.51-1.526a.136.136 0 0 1 .17-.027.134.134 0 0 1 .1.161.109.109 0 0 1-.18.027c-.09-.042-.12-.098-.09-.161zm.47.549c-.08-.1-.09-.169-.03-.214s.13-.04.22.04c.08.1.08.17.02.215-.05.062-.12.049-.21-.041zm.39.549c-.08-.115-.08-.2 0-.241.08-.062.15-.035.22.081a.163.163 0 0 1 0 .254c-.07.054-.14.027-.22-.094zm.52.617c-.12-.1-.14-.183-.05-.255.07-.08.16-.067.26.04s.13.183.06.255-.16.064-.27-.036zm.6.254a.188.188 0 0 1 .26-.094c.14.045.2.116.17.215s-.12.133-.25.08c-.16-.036-.21-.103-.18-.201zm.83.188c0-.1.07-.148.22-.148.15-.018.22.032.22.148q0 .147-.21.147c-.15.015-.23-.031-.23-.147zm.79-.054c-.02-.107.05-.174.19-.2a.179.179 0 0 1 .24.121c.02.089-.04.151-.19.187s-.22-.001-.24-.108zm12.83-6.5l-2.4 3.537s-3.22.7-3.6 1.891c-.31.939 1.57 2.487 2.22 2.988a10.288 10.288 0 0 1-2.74 1.394.612.612 0 0 1-.54-.094.542.542 0 0 1-.17-.4c0-.026 0-.368.01-1.024v-1.8a2.4 2.4 0 0 0-.69-1.9 9.269 9.269 0 0 0 1.37-.241 5.358 5.358 0 0 0 1.26-.523 3.752 3.752 0 0 0 1.08-.89 4.1 4.1 0 0 0 .71-1.407 6.52 6.52 0 0 0 .28-2.015 3.948 3.948 0 0 0-1.06-2.759 3.577 3.577 0 0 0-.11-2.732 1.737 1.737 0 0 0-1.08.147 6.728 6.728 0 0 0-1.23.589l-.51.322a9.7 9.7 0 0 0-5.15 0c-.14-.1-.33-.219-.56-.362a8.092 8.092 0 0 0-1.12-.515 1.845 1.845 0 0 0-1.14-.181 3.577 3.577 0 0 0-.11 2.732 3.993 3.993 0 0 0-1.06 2.759 6.467 6.467 0 0 0 .28 2.009 4.365 4.365 0 0 0 .7 1.406 3.709 3.709 0 0 0 1.08.9 5.358 5.358 0 0 0 1.26.523 9.039 9.039 0 0 0 1.37.241 2.257 2.257 0 0 0-.66 1.379 2.378 2.378 0 0 1-.6.2 3.731 3.731 0 0 1-.76.067 1.572 1.572 0 0 1-.88-.288 2.307 2.307 0 0 1-.74-.837 2.193 2.193 0 0 0-.65-.7 2.088 2.088 0 0 0-.66-.322l-.27-.04a.869.869 0 0 0-.39.06.121.121 0 0 0-.07.154.985.985 0 0 0 .12.188 1.009 1.009 0 0 0 .18.161l.09.066a1.584 1.584 0 0 1 .58.509 3.129 3.129 0 0 1 .43.683l.13.308a1.641 1.641 0 0 0 .59.824 2.014 2.014 0 0 0 .9.4 5.749 5.749 0 0 0 .93.094 3.932 3.932 0 0 0 .74-.047l.31-.054v1.186c.01.45.01.694.01.729a.542.542 0 0 1-.17.4.612.612 0 0 1-.54.094 10.09 10.09 0 0 1-5.07-3.717 10.325 10.325 0 0 1-.58-11.209 10.282 10.282 0 0 1 3.74-3.744 10.362 10.362 0 0 1 10.33 0 10.282 10.282 0 0 1 3.74 3.744 9.945 9.945 0 0 1 1.36 4.771.483.483 0 0 0-.05-.016.515.515 0 0 0-.44.36z" transform="translate(-5133.64 -933.813)"/></svg>