<svg xmlns="http://www.w3.org/2000/svg" width="48" height="48" viewBox="0 0 48 48"><defs><style>.cls-1{fill:#696969;fill-rule:evenodd}</style></defs><path id="_GenericObjects" data-name="!!!GenericObjects" class="cls-1" d="M1310 2605v-46a1.991 1.991 0 0 1 1.99-2h44a2 2 0 0 1 2.01 2v46h-48zm31-26h-10a4 4 0 1 0-4 4 4.078 4.078 0 0 0 .99-.14v7.14H1341v-11zm4-9v-1h-7v1h7zm-10 5v-2h-1v2h-2.01v1h2.01v2h1v-2h2v-1h-2zm1-5v-1h-2v1h2zm-4.01 0v-1H1326v1h5.99zm-10 25h5v-1h-5v1zm-3 2v1h5.01v-1h-5.01zm5.01-27v-1h-5.01v1h5.01zm4.99 24v1H1341v-1h-12.01zm9.01 3v1h7v-1h-7zm-4 4h7v-1h-7v1zm0-3h2v-1h-2v1zm-7.01 3h5v-1h-5v1zm-.99-3h5.99v-1H1326v1zm-13.01 3H1325v-1h-12.01v1zm0-3h4.01v-1h-4.01v1zm0-3h7.01v-1h-7.01v1zm0-25h4.01v-1h-4.01v1zm0-3h7.01v-1h-7.01v1zm.99-7a1 1 0 1 0 1 1 .994.994 0 0 0-1-1zm3.02 0a1 1 0 1 0 1 1 1 1 0 0 0-1-1zm3 0a1 1 0 1 0 1 1 1.005 1.005 0 0 0-1-1zm6.99 6h-5v1h5v-1zm14.01 0h-12.01v1H1341v-1zm6 0h-4v1h4v-1zm3 28h-6v1h6v-1zm-10-5h-11.01v-9H1340v9zm-7-7h-2.01v1h2.01v-1zm0 2h-2.01v1h2.01v-1zm0 2h-2.01v1h2.01v-1zm5-4h-4v1h4v-1zm0 2h-4v1h4v-1zm0 2h-4v1h4v-1zm-10.01-7v2.81a2.725 2.725 0 0 1-.99.19 3 3 0 1 1 3-3h-2.01z" transform="translate(-1310 -2557)"/></svg>