<svg xmlns="http://www.w3.org/2000/svg" width="45.91" height="28.437" viewBox="0 0 45.91 28.437"><defs><style>.cls-1{fill:#fff;fill-rule:evenodd}</style></defs><path id="_LogoMono" data-name="!!!LogoMono" class="cls-1" d="M4056.4 937.168a15.885 15.885 0 0 0-1.75 2.66 10.386 10.386 0 0 0-1.44-1.26c-.29-.2-.53-.368-.77-.525a15.209 15.209 0 0 0 2.38-1.81c.93-.859 2.53-2.407 2.53-2.407l1.15.959s-1.08 1.115-2.1 2.383zm-1.27 5.23a.017.017 0 0 0-.01.018c.01.072.03.145.04.22a8.472 8.472 0 0 1-.84 3.884 11.544 11.544 0 0 1-2.06 3.393 24.04 24.04 0 0 1-3.59 3.37 39.941 39.941 0 0 1-4.85 3.21l-.35.191-.36.191-.96.5a.532.532 0 0 0 .19.127 42.742 42.742 0 0 1-9.46 3.3 48.107 48.107 0 0 1-11.75 1.45 46.874 46.874 0 0 1-5.32-.457 5.314 5.314 0 0 1-2.53-1.029l-.69-.03c.17-.044.34-.1.5-.144l-.09-.105.2-.193a20.028 20.028 0 0 1 5.09-2.49l.55-.191a57.121 57.121 0 0 0 8-3.248 40.124 40.124 0 0 0 7.81-5.648 2.756 2.756 0 0 1 .06-.332 14.374 14.374 0 0 1 1.15-1.191c1.05-1.065 2.13-2.154 3.24-3.188s2.25-2.041 3.38-2.915a22.322 22.322 0 0 1 3.47-2.257 9.361 9.361 0 0 1 3.33-1.069 3.2 3.2 0 0 1 .47 0c.69.43 1.73 1.1 2.79 1.9a15.441 15.441 0 0 1 2.59 2.735zm-22 15.677a7.01 7.01 0 0 0-.36-1.226c-.43.193-.86.374-1.28.551a6.94 6.94 0 0 0 .75 1.113.875.875 0 0 0 .77.472.917.917 0 0 0 .12-.91zm-2.41-3.984h-.01a.946.946 0 0 0-.12.911 7.153 7.153 0 0 0 .49 1.533c.43-.182.87-.372 1.31-.57a7.2 7.2 0 0 0-.9-1.4.891.891 0 0 0-.77-.474zm-4.37 6.9a54.939 54.939 0 0 0 6.22-1.113c-.09-.088-.18-.175-.28-.283a10.557 10.557 0 0 1-1.29-1.981c-.69.283-1.37.538-2 .752-.93.316-1.88.6-2.82.866a7.412 7.412 0 0 1 .19 1.416c0 .121-.01.232-.02.339zm-.71-.482a.59.59 0 0 0 .15-.553 3.515 3.515 0 0 0-.06-.605c-.27.074-.54.143-.8.212a3.523 3.523 0 0 0 .28.57.564.564 0 0 0 .43.372zm-6.77.437a.251.251 0 0 0 .11-.221c-.09.011-.19.027-.28.037a.276.276 0 0 0 .17.18zm-.75-2.1a26.015 26.015 0 0 0-3.5 1.459c1.03-.068 1.96-.268 2.49-.305.33-.021.68-.055 1.02-.091a5.443 5.443 0 0 1-.01-1.067zm.19 1.951c-.31.03-.61.062-.9.081s-.71.017-1.2 0c.57.1 1.31.189 2.21.264a2.729 2.729 0 0 1-.11-.349zm.48-1.612a.19.19 0 1 0-.34.041 2.813 2.813 0 0 0 0 .651c.17-.019.35-.045.52-.067a2.252 2.252 0 0 0-.18-.629zm5.16-2.475c-1.46.592-3 1.139-4.72 1.745l-.31.108a.562.562 0 0 0 .05.1 4.522 4.522 0 0 1 .28 1.108 46.69 46.69 0 0 0 4.95-.98 7.955 7.955 0 0 1-.27-1.75c0-.123.01-.231.02-.335zm-4.64 3.971a2.832 2.832 0 0 1-.02.426.335.335 0 0 1-.02.1c.55.034 1.14.063 1.82.079a35.867 35.867 0 0 0 4.06-.183c-.02-.026-.04-.045-.06-.072a7.574 7.574 0 0 1-.62-1.347 46.38 46.38 0 0 1-5.16.993zm5.36-3.5a.584.584 0 0 0-.16.552 4.558 4.558 0 0 0 .14.937c.28-.072.56-.145.84-.223a4.481 4.481 0 0 0-.4-.891.57.57 0 0 0-.42-.377zm2.64-2.013c-.79.416-1.58.78-2.38 1.126a2.8 2.8 0 0 1 .27.364 7.961 7.961 0 0 1 .74 1.67c.87-.249 1.75-.517 2.61-.811.64-.215 1.33-.478 2.04-.77a11.188 11.188 0 0 1-.79-2.463 3.921 3.921 0 0 1-.05-.563c-.84.546-1.65 1.028-2.44 1.445zm7.43-5.3a49.215 49.215 0 0 1-3.87 3.082 3.216 3.216 0 0 1 .56.525 11.048 11.048 0 0 1 1.44 2.266c1.3-.6 2.59-1.251 3.7-1.857a11.667 11.667 0 0 1-1.83-4.013zm2.42 4.8a62.328 62.328 0 0 1-3.89 1.95 10.931 10.931 0 0 1 .66 2.165 4.919 4.919 0 0 1 .05.726 44.723 44.723 0 0 0 6.52-2.206 11.591 11.591 0 0 1-3.34-2.629z" transform="translate(-4012.59 -933.813)"/></svg>